<svg clip-rule="evenodd" height="142" viewBox="0 0 142 142" width="142" xmlns="http://www.w3.org/2000/svg" xmlns:xlink="http://www.w3.org/1999/xlink"><linearGradient id="a" x1="0" x2="1" y1="0" y2="1"><stop offset="0" stop-color="#00652e"/><stop offset=".5" stop-color="#09953f"/><stop offset="1" stop-color="#00652e"/></linearGradient><path d="m0 0h142v142h-142z" fill="#fff"/><path d="m1 1h140v140h-140z" fill="url(#a)"/><g fill="#fff"><path d="m101.481 57.223c0 .387.315.701.7.701h6.444c.384 0 .699-.314.699-.701v-5.784c0-6.972-4.75-11.655-11.823-11.655-7.07 0-11.822 4.683-11.822 11.655v38.21c0 7.131 4.64 11.739 11.822 11.739h1.369c4.781 0 8.431-2.046 10.34-5.515.039-.07.114-.257.114-.46s0-27.505 0-27.505v-.001c0-.387-.313-.7-.699-.7h-10.486c-.385 0-.7.315-.7.7v6.026c0 .384.315.7.7.7l3.061.003c.154 0 .281.125.281.28l.001 1.598v17.171c0 .153-.125.277-.278.279h-3.703c-2.454 0-3.981-1.654-3.981-4.315l.002-38.21c0-2.649 1.487-4.232 3.979-4.232 2.456 0 3.982 1.622 3.982 4.232 0 0-.002.564-.002.567z"/><path d="m52.699 52.275v37.374c0 2.661-1.526 4.315-3.98 4.315h-3.704c-.152-.002-.276-.126-.276-.279v-45.361c0-.155.126-.28.28-.28h3.7c2.493 0 3.98 1.581 3.98 4.231zm-15.103-11.655c-.384 0-.7.315-.7.699v59.369c0 .385.316.7.7.7h11.123c7.182 0 11.822-4.608 11.822-11.739v-37.374c0-7.081-4.64-11.655-11.822-11.655z"/><path d="m67.696 101.388h15.399c.386 0 .701-.315.701-.7v-6.024c0-.385-.315-.7-.701-.7h-7.979c-.152-.002-.276-.126-.276-.279h-.001l-.002-76.715c-1.27-.088-2.546-.15-3.837-.15-1.349 0-2.683.066-4.006.163l.002 83.705c0 .385.315.7.7.7z"/><path d="m75.492 9.026c-.362.025-.653.322-.653.69l-.002.001v7.253c28.131 1.971 50.344 25.399 50.344 54.031 0 29.922-24.258 54.179-54.181 54.179s-54.181-24.257-54.181-54.179c0-28.574 22.125-51.965 50.175-54.018v-7.256h-.002c0-.363-.284-.655-.639-.687-32.157 2.379-57.513 29.196-57.513 61.961 0 34.329 27.83 62.159 62.16 62.159s62.16-27.83 62.16-62.159c0-32.817-25.437-59.67-57.668-61.975z"/></g></svg>